# xmcd
#
# Track frame offsets:
#	150
#	22844
#	50865
#	65520
#	79754
#	97340
#	110625
#	129689
#	151683
#	169870
#	183280
#	194367
#	200209
#
# Disc length: 2857 seconds
#
# Revision: 0
# Processed by: cddbd v1.5.2PL0 Copyright (c) Steve Scherf et al.
# Submitted via: audiograbber 1.83.01
#
DISCID=ba0b270d
DTITLE=Split Enz - The Rootin Tootin Luton Tapes (Bonus Disc)
DYEAR=2007
DGENRE=Pop
TTITLE0=Hermit McDermitt
TTITLE1=Betty
TTITLE2=I See Red
TTITLE3=Mind Over Matter
TTITLE4=Next Exit
TTITLE5=She Got Body
TTITLE6=So This Is Love
TTITLE7=AbuDhabi
TTITLE8=Famous People
TTITLE9=I'm So Up
TTITLE10=Marooned
TTITLE11=Livin' It Up
TTITLE12=Frenzy
EXTD=Frenz of the Enz Bonus Disc
EXTT0=
EXTT1=
EXTT2=
EXTT3=
EXTT4=
EXTT5=
EXTT6=
EXTT7=
EXTT8=
EXTT9=
EXTT10=
EXTT11=
EXTT12=
PLAYORDER=
